<svg width="20" height="20" viewBox="0 0 20 20" fill="none" xmlns="http://www.w3.org/2000/svg">
<path d="M7.5 16.9612C3.2 18.3612 3.2 14.4612 1.5 13.9612M13.5 18.9612V15.4612C13.5 14.4612 13.6 14.0612 13 13.4612C15.8 13.1612 18.5 12.0612 18.5 7.46116C18.4988 6.26612 18.0325 5.11846 17.2 4.26116C17.5905 3.22312 17.5545 2.07278 17.1 1.06116C17.1 1.06116 16 0.761155 13.6 2.36116C11.5672 1.83174 9.43276 1.83174 7.4 2.36116C5 0.761155 3.9 1.06116 3.9 1.06116C3.44548 2.07278 3.40953 3.22312 3.8 4.26116C2.96745 5.11846 2.50122 6.26612 2.5 7.46116C2.5 12.0612 5.2 13.1612 8 13.4612C7.4 14.0612 7.4 14.6612 7.5 15.4612V18.9612" stroke="black" stroke-width="2" stroke-linecap="round" stroke-linejoin="round"/>
</svg>
